<svg xmlns="http://www.w3.org/2000/svg" viewBox="0 0 32 32">
  <defs>
    <linearGradient id="bg" x1="0" y1="0" x2="1" y2="1">
      <stop offset="0%" stop-color="#7C3AED"/>
      <stop offset="100%" stop-color="#06B6D4"/>
    </linearGradient>
    <linearGradient id="btn" x1="0" y1="0" x2="1" y2="1">
      <stop offset="0%" stop-color="#a855f7"/>
      <stop offset="100%" stop-color="#22d3ee"/>
    </linearGradient>
  </defs>
  <!-- Background rounded square -->
  <rect width="32" height="32" rx="7" fill="url(#bg)"/>
  <!-- Gamepad body -->
  <path d="M6 13C6 10.79 7.79 9 10 9h12c2.21 0 4 1.79 4 4v6c0 2.21-1.79 4-4 4H10c-2.21 0-4-1.79-4-4v-6z" fill="white" opacity="0.92"/>
  <!-- D-pad vertical -->
  <rect x="10.5" y="12.5" width="2" height="7" rx="1" fill="#7C3AED"/>
  <!-- D-pad horizontal -->
  <rect x="8.5" y="14.5" width="6" height="2" rx="1" fill="#7C3AED"/>
  <!-- Circle buttons -->
  <circle cx="20" cy="14" r="1.4" fill="#06B6D4"/>
  <circle cx="22.2" cy="16" r="1.4" fill="#a855f7"/>
  <circle cx="20" cy="18" r="1.4" fill="#34d399"/>
  <!-- Center circle -->
  <circle cx="16" cy="16" r="1.1" fill="#7C3AED" opacity="0.4"/>
</svg>
